<svg width="101" height="101" viewBox="0 0 101 101" fill="none" xmlns="http://www.w3.org/2000/svg">
<rect width="60.72" height="60.72" rx="8" transform="matrix(1 0 0 -1 19 79)" fill="#2EFFE9"/>
<circle cx="75.5" cy="25.5" r="13.5" fill="white"/>
<path d="M60.4 38.2491L46.4426 23.8V41.8219L38.6762 33.7796L35.5992 36.9673L45.5417 47.26L35.56 57.5933L38.637 60.7787L46.4426 52.6981V70.72L60.4 56.271L51.6957 47.26L60.4 38.2491ZM50.7948 34.6762L54.246 38.2491L50.7948 41.8219V34.6762ZM50.7948 59.8438V52.6981L54.246 56.271L50.7948 59.8438Z" fill="#00715B"/>
<path d="M75.58 10C67.1855 10 60.4 16.7855 60.4 25.18C60.4 33.5745 67.1855 40.36 75.58 40.36C83.9745 40.36 90.76 33.5745 90.76 25.18C90.76 16.7855 83.9745 10 75.58 10ZM83.17 30.6296L81.0296 32.77L75.58 27.3204L70.1304 32.77L67.99 30.6296L73.4396 25.18L67.99 19.7304L70.1304 17.59L75.58 23.0396L81.0296 17.59L83.17 19.7304L77.7204 25.18L83.17 30.6296Z" fill="#FF6868"/>
</svg>
