<svg width="73" height="73" viewBox="0 0 73 73" fill="none" xmlns="http://www.w3.org/2000/svg">
<path d="M3.04167 3.04175H33.4583V33.4584H3.04167V3.04175ZM9.125 9.12508V27.3751H27.375V9.12508H9.125Z" fill="#00FFF0"/>
<path fill-rule="evenodd" clip-rule="evenodd" d="M15.2083 15.2083H21.2917V21.2916H15.2083V15.2083Z" fill="#00FFF0"/>
<path d="M39.5417 3.04175H69.9583V33.4584H39.5417V3.04175ZM45.625 9.12508V27.3751H63.875V9.12508H45.625Z" fill="#00FFF0"/>
<path fill-rule="evenodd" clip-rule="evenodd" d="M51.7083 15.2083H57.7917V21.2916H51.7083V15.2083Z" fill="#00FFF0"/>
<path d="M3.04167 39.5417H33.4583V69.9584H3.04167V39.5417ZM9.125 45.6251V63.8751H27.375V45.6251H9.125Z" fill="#00FFF0"/>
<path fill-rule="evenodd" clip-rule="evenodd" d="M15.2083 51.7083H21.2917V57.7916H15.2083V51.7083Z" fill="#00FFF0"/>
<path d="M69.9583 57.7917H57.7917V69.9584H39.5417V39.5417H42.5833H39.5417V57.7917H45.625V63.8751H51.7083V45.6251H45.625V39.5417H42.5833H51.7083V45.6251H57.7917V51.7084H63.875V39.5417H69.9583V57.7917ZM69.9583 63.8751V69.9584H63.875V63.8751H69.9583Z" fill="#00FFF0"/>
</svg>
